<svg width="9" height="13" viewBox="0 0 9 13" fill="none" xmlns="http://www.w3.org/2000/svg">
<rect width="9" height="13" fill="#E5E5E5"/>
<g id="Rentiz" clip-path="url(#clip0_0_1)">
<rect width="1920" height="5722" transform="translate(-356 -641)" fill="#121B25"/>
<g id="header">
<g id="billboard">
<g id="filter search">
<g id="Rectangle 5" filter="url(#filter0_d_0_1)">
<rect x="-106" y="-32" width="889" height="100" fill="white"/>
</g>
<g id="purpose">
<g id="fa6-solid:angle-down" clip-path="url(#clip1_0_1)">
<path id="Vector" d="M4.50012 9.75C4.69202 9.75 4.88402 9.67065 5.03027 9.51196L8.78027 5.44946C9.07324 5.13208 9.07324 4.61792 8.78027 4.30054C8.4873 3.98315 8.0127 3.98315 7.71973 4.30054L4.50012 7.78984L1.27981 4.30117C0.986838 3.98379 0.512229 3.98379 0.21926 4.30117C-0.0737085 4.61855 -0.0737085 5.13271 0.21926 5.4501L3.96926 9.5126C4.11574 9.67129 4.30793 9.75 4.50012 9.75Z" fill="#1AA090"/>
</g>
</g>
</g>
</g>
</g>
</g>
<defs>
<filter id="filter0_d_0_1" x="-130" y="-52" width="937" height="148" filterUnits="userSpaceOnUse" color-interpolation-filters="sRGB">
<feFlood flood-opacity="0" result="BackgroundImageFix"/>
<feColorMatrix in="SourceAlpha" type="matrix" values="0 0 0 0 0 0 0 0 0 0 0 0 0 0 0 0 0 0 127 0" result="hardAlpha"/>
<feOffset dy="4"/>
<feGaussianBlur stdDeviation="12"/>
<feComposite in2="hardAlpha" operator="out"/>
<feColorMatrix type="matrix" values="0 0 0 0 0 0 0 0 0 0 0 0 0 0 0 0 0 0 0.3 0"/>
<feBlend mode="normal" in2="BackgroundImageFix" result="effect1_dropShadow_0_1"/>
<feBlend mode="normal" in="SourceGraphic" in2="effect1_dropShadow_0_1" result="shape"/>
</filter>
<clipPath id="clip0_0_1">
<rect width="1920" height="5722" fill="white" transform="translate(-356 -641)"/>
</clipPath>
<clipPath id="clip1_0_1">
<rect width="9" height="13" fill="white" transform="matrix(-1 0 0 1 9 0)"/>
</clipPath>
</defs>
</svg>
